<svg xmlns="http://www.w3.org/2000/svg" viewBox="0 0 560 340" role="img" aria-label="NAJJAR &amp; AL SAMOOM TRADING">
  <defs>
    <linearGradient id="gold" x1="0%" y1="0%" x2="100%" y2="100%">
      <stop offset="0%" stop-color="#6e5414"/>
      <stop offset="22%" stop-color="#d4a84a"/>
      <stop offset="45%" stop-color="#f3e09a"/>
      <stop offset="62%" stop-color="#e0b85a"/>
      <stop offset="100%" stop-color="#7a5a14"/>
    </linearGradient>
    <filter id="glow" x="-20%" y="-20%" width="140%" height="140%">
      <feGaussianBlur stdDeviation="2" result="b"/>
      <feMerge><feMergeNode in="b"/><feMergeNode in="SourceGraphic"/></feMerge>
    </filter>
  </defs>
  <rect width="560" height="340" rx="10" fill="#0a0a0a"/>
  <rect x="6" y="6" width="548" height="328" rx="6" fill="none" stroke="url(#gold)" stroke-width="3" filter="url(#glow)"/>
  <!-- speed lines + sports car -->
  <g transform="translate(0,-10)">
    <g stroke="url(#gold)" stroke-width="2.8" stroke-linecap="round" opacity=".9">
      <line x1="168" y1="48" x2="214" y2="48"/>
      <line x1="156" y1="62" x2="212" y2="62"/>
      <line x1="164" y1="76" x2="206" y2="76"/>
    </g>
    <g transform="translate(220,28) scale(0.48)" filter="url(#glow)">
      <path fill="url(#gold)" d="M8,74 L28,74 A14,13.5 0 0 1 56,74 L144,74 A14,13.5 0 0 1 172,74 L188,74 C196,74 202,70.5 202,66 C202,60 196,55 186,51 C180,48 176,43 172,36 C166,26 156,18 142,14 C130,10.5 116,9.5 102,10 C88,10.5 74,14.5 62,22 C50,29.5 40,40 32,50 C28,55 20,60 12,62 C6,63.5 2,67 2,70.5 C2,72.5 4,74 8,74 Z"/>
      <path fill="#0a0a0a" d="M66,24 C78,17.5 90,14.5 104,14 C118,13.5 130,16 140,21.5 C148,25.5 154,31.5 158,38 C148,40 134,42 120,42 C104,42 88,40 74,36 C71,32 68,28 66,24 Z"/>
      <path fill="url(#gold)" d="M168,34 L186,28 L190,32.5 L174,40 Z"/>
      <circle cx="42" cy="74" r="14" fill="#0a0a0a" stroke="url(#gold)" stroke-width="3.2"/>
      <circle cx="42" cy="74" r="5.5" fill="url(#gold)"/>
      <circle cx="158" cy="74" r="14" fill="#0a0a0a" stroke="url(#gold)" stroke-width="3.2"/>
      <circle cx="158" cy="74" r="5.5" fill="url(#gold)"/>
    </g>
  </g>
  <text x="280" y="140" text-anchor="middle" fill="url(#gold)" font-family="Georgia,'Times New Roman',serif" font-size="24" font-weight="700" letter-spacing="1.2" filter="url(#glow)">NAJJAR &amp; AL SAMOOM TRADING</text>
  <text x="280" y="168" text-anchor="middle" fill="url(#gold)" font-family="Arial,Helvetica,sans-serif" font-size="13" letter-spacing="2.8">— USED &amp; IMPORTED CARS —</text>
  <path fill="url(#gold)" d="M120,186 C180,180 230,178 280,178 C330,178 380,180 440,186 C380,190 330,192 280,192 C230,192 180,190 120,186 Z" opacity=".9"/>
  <g font-family="Arial,sans-serif" fill="url(#gold)">
    <text x="170" y="220" text-anchor="middle" font-size="12" font-weight="800" letter-spacing="1.5">WALED</text>
    <text x="170" y="240" text-anchor="middle" font-size="13" font-weight="700">+968 71924089</text>
    <line x1="280" y1="208" x2="280" y2="246" stroke="url(#gold)" stroke-width="1.5" opacity=".5"/>
    <text x="390" y="220" text-anchor="middle" font-size="12" font-weight="800" letter-spacing="1.5">HAMAD</text>
    <text x="390" y="240" text-anchor="middle" font-size="13" font-weight="700">+968 7754 8482</text>
  </g>
  <line x1="60" y1="258" x2="500" y2="258" stroke="url(#gold)" stroke-width="1" opacity=".3"/>
  <g font-family="Arial,sans-serif" fill="url(#gold)">
    <text x="280" y="278" text-anchor="middle" font-size="12" font-weight="800" letter-spacing="2">SALES</text>
    <text x="205" y="298" text-anchor="middle" font-size="12" font-weight="700">+968 93391994</text>
    <line x1="280" y1="285" x2="280" y2="302" stroke="url(#gold)" stroke-width="1.2" opacity=".5"/>
    <text x="355" y="298" text-anchor="middle" font-size="12" font-weight="700">+968 9555 1994</text>
  </g>
  <text x="280" y="324" text-anchor="middle" fill="url(#gold)" font-family="Arial,sans-serif" font-size="11" opacity=".85">Al Dakhilia Governorate — Nizwa — Farq</text>
</svg>
